<?xml version="1.0" encoding="utf-8"?>
<!-- Generator: Adobe Illustrator 21.0.1, SVG Export Plug-In . SVG Version: 6.00 Build 0)  -->
<svg version="1.1" id="Layer_1" xmlns="http://www.w3.org/2000/svg" xmlns:xlink="http://www.w3.org/1999/xlink" x="0px" y="0px"
	 viewBox="0 0 91.1 53.8" style="enable-background:new 0 0 91.1 53.8;" xml:space="preserve">
<style type="text/css">
	.st0{fill:none;stroke:#FFFFFF;stroke-width:4;stroke-miterlimit:10;}
	.st1{fill:#FFFFFF;}
</style>
<path class="st0" d="M58.4,51.6c0-1.7-0.9-5.1-3.7-10.9 M58,2.3c0,1.6-0.2,5.5-3,11.2 M0.3,13.1L55,13.4c0,0,3.9,6.1,3.9,15.2
	c0,6.4-4.3,12-4.3,12L0,40.7 M0.7,2H58l30,25.1L58.5,51.6L0.7,51.8"/>
<path class="st1" d="M78.9,18c0,0-1.6,2.6-1.6,7.7s0.3,8.8,0.9,10c0.2,0.3,10.7-8.9,10.7-8.9L78.9,18z"/>
</svg>
