<?xml version="1.0" encoding="utf-8"?>
<!-- Generator: Adobe Illustrator 21.0.1, SVG Export Plug-In . SVG Version: 6.00 Build 0)  -->
<svg version="1.1" id="Layer_2" xmlns="http://www.w3.org/2000/svg" xmlns:xlink="http://www.w3.org/1999/xlink" x="0px" y="0px"
	 viewBox="0 0 53.8 89.9" style="enable-background:new 0 0 53.8 89.9;" xml:space="preserve">
<style type="text/css">
	.st0{fill:none;stroke:#FFFFFF;stroke-width:4;stroke-miterlimit:10;}
	.st1{fill:#FFFFFF;}
</style>
<path class="st0" d="M51.6,57.5c-1.7,0-5.1-0.9-10.9-3.7 M2.3,57.2c1.6,0,5.5-0.2,11.2-2.9 M13.1,0.3l0.3,53.9c0,0,6.1,3.9,15.2,3.9
	c6.4,0,12-4.2,12-4.2L40.8,0 M2,0.6v56.5l24.9,29.6l24.7-29.1l0.2-57"/>
<path class="st1" d="M18,77.8c0,0,2.6-1.5,7.7-1.5c5.1,0,8.8,0.3,10,0.9c0.3,0.2-8.9,10.6-8.9,10.6L18,77.8z"/>
</svg>
