<?xml version="1.0" encoding="utf-8"?>
<!-- Generator: Adobe Illustrator 21.0.1, SVG Export Plug-In . SVG Version: 6.00 Build 0)  -->
<svg version="1.1" id="Layer_1" xmlns="http://www.w3.org/2000/svg" xmlns:xlink="http://www.w3.org/1999/xlink" x="0px" y="0px"
	 viewBox="0 0 53.8 91.1" style="enable-background:new 0 0 53.8 91.1;" xml:space="preserve">
<style type="text/css">
	.st0{fill:none;stroke:#000000;stroke-width:4;stroke-miterlimit:10;}
</style>
<path class="st0" d="M51.6,32.8c-1.7,0-5.1,0.9-10.9,3.7 M2.3,33.2c1.6,0,5.5,0.2,11.2,3 M13.1,90.9l0.3-54.7c0,0,6.1-3.9,15.2-3.9
	c6.4,0,12,4.3,12,4.3l0.1,54.6 M2,90.5V33.2l25.1-30l24.5,29.5l0.2,57.8"/>
<path d="M18,12.3c0,0,2.6,1.6,7.7,1.6c5.1,0,8.8-0.3,10-0.9c0.3-0.2-8.9-10.7-8.9-10.7L18,12.3z"/>
</svg>
